# xmcd CD database file
#
# Track frame offsets:
#	150
#	16508
#	30017
#	46825
#	60032
#	76991
#	91511
#	104718
#	119689
#	131247
#	143855
#	192314
#	203872
#	215955
#
# Disc length: 3811 seconds
#
# Revision: 3
# Processed by: cddbd v1.5.1PL0 Copyright (c) Steve Scherf et al.
# Submitted via: cdripper 1,0,32,406
#
DISCID=b80ee10e
DTITLE=Jimi Hendrix - Astro Man Box Set [CD1] 
DYEAR=2003
DGENRE=Acid
TTITLE0=Voodoo Chile (Slight Return)
TTITLE1=Purple Haze #1 (Pre Unre)
TTITLE2=La Pouppee Qui Fait Non (Pre Unre)
TTITLE3=Come On (Pre Unre)
TTITLE4=One Rainy Wish (Pre Unre)
TTITLE5=Angel (Pre Unre)
TTITLE6=Look Over Yonder (Pre Unre)
TTITLE7=51st Anniversary (Pre Unre)
TTITLE8=Can You See Me (Pre Unre)
TTITLE9=Cat Talkin' To Me (Pre Unre)
TTITLE10=Red House Takes (Pre Unre)
TTITLE11=Fire (Pre Unre)
TTITLE12=Purple Haze #2 (Pre Unre)
TTITLE13=I Don't Live Today Takes (Pre Unre)
EXTD=YEAR: 2003
EXTT0=
EXTT1=
EXTT2=
EXTT3=
EXTT4=
EXTT5=
EXTT6=
EXTT7=
EXTT8=
EXTT9=
EXTT10=
EXTT11=
EXTT12=
EXTT13=
PLAYORDER=
